<svg xmlns="http://www.w3.org/2000/svg" height="1024" preserveAspectRatio="none" style="display: block;" version="1.1" viewBox="0 0 2048 2048" width="1024">
<defs>
	<linearGradient gradientUnits="userSpaceOnUse" id="Gradient1" x1="779.379" x2="795.046" y1="1645.72" y2="1638.09">
		<stop class="stop0" offset="0" stop-color="#114530" stop-opacity="1"></stop>
		<stop class="stop1" offset="1" stop-color="#C89D5F" stop-opacity="1"></stop>
	</linearGradient>
</defs>
<path d="M 0 0 L 2048 0 L 2048 2048 L 0 2048 L 0 0 z" fill="#FDFBF4" transform="translate(0,0)"></path>
<path d="M 1057.42 221.279 C 1068.99 220.543 1077.72 221.929 1089.33 222.681 C 1090.06 222.175 1090.79 221.669 1091.52 221.163 C 1256.99 230.204 1407.17 277.478 1540.49 377.072 C 1551.5 385.303 1604.03 423.661 1609.07 432.308 C 1612.53 436.966 1623.72 447.011 1628.59 450.61 C 1644.79 464.306 1660.35 481.467 1674.28 497.413 C 1725.33 555.846 1768.47 622.055 1800.58 692.633 C 1821.63 738.899 1839.75 782.755 1849.5 832.813 C 1851.07 840.871 1854.61 849.219 1856.02 857.419 C 1859.28 871.81 1861.11 887.31 1864.5 901.478 C 1865.88 909.164 1872.18 940.564 1869.93 947.012 C 1869.51 952.094 1873.51 963.035 1871.59 971.844 C 1872.37 977.773 1873.1 983.71 1873.76 989.654 C 1873.8 994.212 1873.75 999.117 1874.02 1003.64 C 1875.1 1008.89 1875.49 1029.39 1873.89 1034.09 L 1872.12 1034.7 C 1873.87 1040.93 1874.18 1046.49 1873.61 1052.91 L 1872.79 1054.24 C 1873.82 1058.96 1874.15 1062.5 1872.83 1067.25 C 1874.82 1070.74 1872.71 1087.05 1871.98 1091.52 C 1871.36 1102.45 1870.52 1115.44 1868.35 1126.12 C 1868.05 1135.07 1862.48 1169.23 1860.25 1177.71 C 1859.17 1186.88 1856.29 1196.99 1854.26 1206.12 L 1852.68 1212.97 C 1822.02 1338.82 1761.09 1455.28 1675.18 1552.22 C 1660.99 1568.24 1647.16 1584.67 1630.69 1598.35 C 1627.04 1601.38 1622.99 1604.13 1619.53 1607.31 C 1616.05 1609.09 1613.23 1611.38 1611.62 1615.02 C 1591.88 1636.94 1550.83 1667.23 1526.34 1684.15 C 1401.05 1772.17 1253.2 1822.53 1100.23 1829.29 C 1083.83 1830.15 1066.62 1830.15 1050.17 1830.18 L 1048.88 1846.43 L 1047.16 1847.98 C 1042.91 1848.18 1040.7 1848.73 1037.04 1846.93 C 1034.34 1842.96 1034.97 1837.98 1034.83 1832.79 L 1034.55 1831.41 C 1031.46 1830.09 977.169 1826.79 970.336 1826.2 L 965.698 1826.44 C 960.549 1824.78 941.482 1823.46 935.033 1822.56 C 914.302 1819.68 888.366 1816.59 868.445 1810.61 C 736.342 1779.64 620.184 1725.21 518.265 1634.65 C 508.506 1625.98 498.465 1617.42 488.51 1608.97 L 488.534 1607.38 C 486.407 1605.89 482.82 1602.2 479.594 1599.82 C 477.354 1597.88 474.647 1595.21 472.535 1593.11 C 346.911 1467.29 265.779 1303.92 241.462 1127.79 C 237.406 1096.57 235.977 1043.95 235.841 1012.62 C 236.338 1008.79 236.732 1004.96 237.021 1001.12 C 237.346 989.983 237.381 975.29 239.03 964.333 C 239.389 961.945 239.73 962.426 242.095 961.156 C 238.43 954.586 240.129 948.89 241.277 941.529 C 241.742 911.077 257.728 844.21 266.098 814.96 C 300.237 695.658 359.977 584.558 442.61 491.859 C 460.998 471.23 478.625 455.107 497.371 435.651 C 500.623 433.199 503.987 430.899 507.453 428.76 C 511.809 424.512 519.959 418.065 525.044 413.473 C 626.457 329.046 746.497 269.951 875.254 241.068 C 895.476 236.499 915.014 232.77 935.488 229.604 C 949.154 227.491 969.56 227.276 981.951 223.654 L 986.798 223.684 C 1009 223.019 1035.13 219.175 1057.42 221.279 z" fill="#FDFBF4" transform="translate(0,0)"></path>
<path d="M 1057.42 221.279 C 1068.99 220.543 1077.72 221.929 1089.33 222.681 C 1090.06 222.175 1090.79 221.669 1091.52 221.163 C 1256.99 230.204 1407.17 277.478 1540.49 377.072 C 1551.5 385.303 1604.03 423.661 1609.07 432.308 C 1612.53 436.966 1623.72 447.011 1628.59 450.61 C 1644.79 464.306 1660.35 481.467 1674.28 497.413 C 1725.33 555.846 1768.47 622.055 1800.58 692.633 C 1821.63 738.899 1839.75 782.755 1849.5 832.813 C 1851.07 840.871 1854.61 849.219 1856.02 857.419 C 1859.28 871.81 1861.11 887.31 1864.5 901.478 C 1865.88 909.164 1872.18 940.564 1869.93 947.012 L 1869.23 945.497 C 1866.05 943.791 1861.96 945.558 1855.95 944.138 C 1854.92 941.389 1855.71 942.564 1853.38 940.581 C 1852.94 932.169 1850.74 921.702 1849.65 913.144 C 1846.26 886.584 1840.74 862.454 1834.31 836.5 L 1830.79 820.676 C 1827.25 812.796 1824.12 795.48 1821.2 786.738 C 1817.81 776.574 1813.83 766.301 1810.06 756.298 C 1781.4 682.155 1742.54 612.371 1694.61 548.965 C 1688.27 542.26 1675.53 524.96 1669.29 517 C 1643.35 487.315 1615.87 458.658 1585.35 433.662 C 1574.78 423.398 1559.91 412.967 1548.19 402.297 C 1509.02 372.689 1467.47 346.369 1423.97 323.605 C 1336.12 278.229 1226.79 246.739 1128.23 240.69 C 1127.01 237.763 1125.45 233.133 1123.36 231.082 C 1120.29 233.354 1118.68 236.24 1116.96 239.576 L 1115.75 238.828 C 1112.97 237.139 1111.49 235.757 1108.35 235.818 C 1108.3 237.373 1108.28 236.614 1108.41 238.095 C 1099.68 239.94 1060 237.384 1048.08 237.446 C 1017.39 237.897 986.744 239.823 956.239 243.218 C 810.489 260.721 661.185 324.672 545.254 417.525 C 540.851 421.051 538.244 424.309 533.247 427.464 C 514.368 445.627 494.746 460.211 475.599 480.149 C 385.315 574.724 319.205 689.703 282.89 815.309 C 277.819 832.827 270.61 858.275 267.136 876.28 C 265.197 886.325 263.463 896.409 261.935 906.525 C 260.963 913.404 258.675 937.934 256.374 942.933 C 249.642 941.575 248.161 941.464 241.277 941.529 C 241.742 911.077 257.728 844.21 266.098 814.96 C 300.237 695.658 359.977 584.558 442.61 491.859 C 460.998 471.23 478.625 455.107 497.371 435.651 C 500.623 433.199 503.987 430.899 507.453 428.76 C 511.809 424.512 519.959 418.065 525.044 413.473 C 626.457 329.046 746.497 269.951 875.254 241.068 C 895.476 236.499 915.014 232.77 935.488 229.604 C 949.154 227.491 969.56 227.276 981.951 223.654 L 986.798 223.684 C 1009 223.019 1035.13 219.175 1057.42 221.279 z" fill="#114530" transform="translate(0,0)"></path>
<path d="M 1669.29 517 C 1681.85 518.287 1694.93 537.194 1694.61 548.965 C 1688.27 542.26 1675.53 524.96 1669.29 517 z" fill="#2F7A54" transform="translate(0,0)"></path>
<path d="M 1864.5 901.478 C 1865.88 909.164 1872.18 940.564 1869.93 947.012 L 1869.23 945.497 C 1866.05 943.791 1861.96 945.558 1855.95 944.138 C 1854.92 941.389 1855.71 942.564 1853.38 940.581 C 1855.65 939.488 1863.43 940.998 1868 940.634 L 1868.56 939.449 C 1864.7 931.332 1861.74 910.447 1864.5 901.478 z" fill="#2F7A54" transform="translate(0,0)"></path>
<path d="M 1548.19 402.297 C 1555.26 404.47 1555.7 406.853 1560.52 408.304 L 1559.91 407.639 C 1567.81 412.076 1584.06 424.365 1585.35 433.662 C 1574.78 423.398 1559.91 412.967 1548.19 402.297 z" fill="#114530" transform="translate(0,0)"></path>
<path d="M 1830.79 820.676 C 1834.4 823.234 1841.05 829.822 1838.16 834.48 L 1834.31 836.5 L 1830.79 820.676 z" fill="#114530" transform="translate(0,0)"></path>
<path d="M 981.951 223.654 L 986.798 223.684 C 986.654 226.632 989.027 234.642 987.125 236.507 C 985.08 233.096 984.747 229.258 982.392 224.524 L 981.951 223.654 z" fill="#C89D5F" transform="translate(0,0)"></path>
<path d="M 1833.83 1219.36 C 1841.98 1215.91 1843.08 1212.75 1852.68 1212.97 C 1822.02 1338.82 1761.09 1455.28 1675.18 1552.22 C 1660.99 1568.24 1647.16 1584.67 1630.69 1598.35 C 1627.04 1601.38 1622.99 1604.13 1619.53 1607.31 C 1616.05 1609.09 1613.23 1611.38 1611.62 1615.02 C 1591.88 1636.94 1550.83 1667.23 1526.34 1684.15 C 1401.05 1772.17 1253.2 1822.53 1100.23 1829.29 C 1083.83 1830.15 1066.62 1830.15 1050.17 1830.18 L 1048.88 1846.43 L 1047.16 1847.98 C 1042.91 1848.18 1040.7 1848.73 1037.04 1846.93 C 1034.34 1842.96 1034.97 1837.98 1034.83 1832.79 L 1034.55 1831.41 C 1031.46 1830.09 977.169 1826.79 970.336 1826.2 L 965.698 1826.44 C 966.178 1819.07 966.636 1816.66 964.814 1809.41 L 971.734 1809.99 C 992.248 1813.94 1030.16 1813.1 1051.97 1814.74 C 1060.68 1815.39 1109.98 1810.84 1114.57 1812.5 L 1115.76 1818.31 L 1117.5 1819.14 C 1119.9 1818.26 1120.28 1816.96 1121.64 1814.7 L 1122.17 1813.8 L 1123.24 1813.54 L 1125.43 1814.99 L 1129.59 1811.02 C 1198.88 1807.59 1274.62 1787.6 1339.92 1764.94 C 1348.31 1762.03 1353.03 1759.01 1360.6 1755.61 C 1365.68 1753.32 1376.14 1753.62 1382.09 1750.07 C 1382.28 1749.54 1383.61 1746.04 1383.87 1745.93 C 1410.14 1734.35 1435.31 1722.14 1459.99 1707.52 C 1515.52 1675.12 1567.3 1636.66 1614.37 1592.86 C 1626.54 1581.52 1637.86 1567.7 1650 1556.72 C 1665.63 1542.59 1682.57 1512.58 1697.93 1500.61 C 1700.76 1501.08 1699.76 1501.14 1702.52 1500.66 C 1705.69 1495.69 1700.16 1496.23 1704.93 1489.68 C 1766.59 1405.13 1807.32 1320.96 1833.83 1219.36 z" fill="#114530" transform="translate(0,0)"></path>
<path d="M 964.814 1809.41 L 971.734 1809.99 C 970.067 1814.6 968.077 1818.6 968.492 1823.35 L 970.336 1826.2 L 965.698 1826.44 C 966.178 1819.07 966.636 1816.66 964.814 1809.41 z" fill="#C89D5F" transform="translate(0,0)"></path>
<path d="M 242.095 961.156 C 245.785 961.211 249.734 961.48 253.089 961.525 C 255.121 965.488 253.358 1024.05 251.967 1027.79 L 247.11 1028.6 C 252.656 1036.64 253.57 1033.05 253.605 1045.14 C 253.622 1050.95 248.658 1061.68 251.849 1065.48 C 258.451 1073.34 250.949 1075.52 250.126 1080.56 C 251.684 1082.69 250.956 1081.92 253.609 1083.13 C 254.602 1087 253.833 1087.26 251.552 1090.8 C 252.289 1095.71 256.113 1100.42 256.367 1103.77 C 259.349 1143.02 266.019 1179.51 275.853 1217.61 C 321.93 1395.45 428.141 1551.86 576.452 1660.28 C 652.771 1717.19 739.094 1759.26 830.937 1784.31 C 857.057 1791.62 881.232 1795.48 906.286 1802.07 L 904.751 1802.2 C 895.045 1803.02 888.659 1800.78 879.377 1800.11 C 870.828 1799.49 868.071 1801.97 868.445 1810.61 C 736.342 1779.64 620.184 1725.21 518.265 1634.65 C 508.506 1625.98 498.465 1617.42 488.51 1608.97 L 488.534 1607.38 C 486.407 1605.89 482.82 1602.2 479.594 1599.82 C 477.354 1597.88 474.647 1595.21 472.535 1593.11 C 346.911 1467.29 265.779 1303.92 241.462 1127.79 C 237.406 1096.57 235.977 1043.95 235.841 1012.62 C 236.338 1008.79 236.732 1004.96 237.021 1001.12 C 237.346 989.983 237.381 975.29 239.03 964.333 C 239.389 961.945 239.73 962.426 242.095 961.156 z" fill="#114530" transform="translate(0,0)"></path>
<path d="M 868.445 1810.61 C 868.071 1801.97 870.828 1799.49 879.377 1800.11 C 888.659 1800.78 895.045 1803.02 904.751 1802.2 L 906.286 1802.07 C 925.861 1804.74 945.065 1808.15 964.814 1809.41 C 966.636 1816.66 966.178 1819.07 965.698 1826.44 C 960.549 1824.78 941.482 1823.46 935.033 1822.56 C 914.302 1819.68 888.366 1816.59 868.445 1810.61 z" fill="#114530" transform="translate(0,0)"></path>
<path d="M 1872.83 1067.25 C 1874.82 1070.74 1872.71 1087.05 1871.98 1091.52 C 1871.36 1102.45 1870.52 1115.44 1868.35 1126.12 C 1865.03 1123.94 1859.47 1123.62 1855.34 1123.03 C 1854.44 1122.05 1854.2 1121.59 1853.46 1120.48 C 1853.4 1114.42 1854.41 1104.26 1855.65 1098.27 C 1856.22 1088.02 1856.71 1077.77 1857.13 1067.51 C 1862.37 1067.47 1867.6 1067.39 1872.83 1067.25 z" fill="#114530" transform="translate(0,0)"></path>
<path d="M 1855.34 1123.03 C 1859.47 1123.62 1865.03 1123.94 1868.35 1126.12 C 1868.05 1135.07 1862.48 1169.23 1860.25 1177.71 C 1853.88 1179.78 1853.15 1180.75 1846.26 1180.9 C 1845.39 1179.37 1844.75 1177.24 1845.18 1175.55 C 1847.74 1165.42 1849.75 1128.35 1855.34 1123.03 z" fill="#114530" transform="translate(0,0)"></path>
<path d="M 1857.99 1000.48 C 1863.17 1000.49 1869.6 1000.74 1874.02 1003.64 C 1875.1 1008.89 1875.49 1029.39 1873.89 1034.09 L 1872.12 1034.7 C 1873.87 1040.93 1874.18 1046.49 1873.61 1052.91 L 1872.79 1054.24 C 1869.57 1054.88 1867.65 1053.95 1864.49 1053 C 1861.02 1050.04 1861.2 1047.28 1857.86 1043.36 C 1858.38 1029.3 1857.02 1013.77 1857.99 1000.48 z" fill="#114530" transform="translate(0,0)"></path>
<path d="M 1855.95 944.138 C 1861.96 945.558 1866.05 943.791 1869.23 945.497 L 1869.93 947.012 C 1869.51 952.094 1873.51 963.035 1871.59 971.844 L 1870.02 972.552 C 1868.96 973.026 1866.96 973.835 1865.81 973.897 C 1862.7 974.065 1861.37 976.573 1858.93 977.826 C 1855.31 973.978 1852.17 948.5 1855.95 944.138 z" fill="#114530" transform="translate(0,0)"></path>
<path d="M 1858.93 977.826 C 1861.37 976.573 1862.7 974.065 1865.81 973.897 C 1866.96 973.835 1868.96 973.026 1870.02 972.552 L 1871.59 971.844 C 1872.37 977.773 1873.1 983.71 1873.76 989.654 C 1873.8 994.212 1873.75 999.117 1874.02 1003.64 C 1869.6 1000.74 1863.17 1000.49 1857.99 1000.48 L 1857.59 992.196 C 1857.12 987.159 1856.42 983.585 1857.5 978.643 L 1858.93 977.826 z" fill="#114530" transform="translate(0,0)"></path>
<path d="M 1846.26 1180.9 C 1853.15 1180.75 1853.88 1179.78 1860.25 1177.71 C 1859.17 1186.88 1856.29 1196.99 1854.26 1206.12 C 1846.32 1200.49 1846.46 1196.45 1840.91 1189.69 C 1842.36 1184.58 1842.36 1183.27 1846.26 1180.9 z" fill="#114530" transform="translate(0,0)"></path>
<path d="M 241.277 941.529 C 248.161 941.464 249.642 941.575 256.374 942.933 C 256.731 950.505 257.675 955.323 253.089 961.525 C 249.734 961.48 245.785 961.211 242.095 961.156 C 238.43 954.586 240.129 948.89 241.277 941.529 z" fill="#114530" transform="translate(0,0)"></path>
<path d="M 1833.83 1219.36 C 1835.7 1209.94 1840.31 1198.62 1840.91 1189.69 C 1846.46 1196.45 1846.32 1200.49 1854.26 1206.12 L 1852.68 1212.97 C 1843.08 1212.75 1841.98 1215.91 1833.83 1219.36 z" fill="#114530" transform="translate(0,0)"></path>
<path d="M 1857.86 1043.36 C 1861.2 1047.28 1861.02 1050.04 1864.49 1053 C 1867.65 1053.95 1869.57 1054.88 1872.79 1054.24 C 1873.82 1058.96 1874.15 1062.5 1872.83 1067.25 C 1867.6 1067.39 1862.37 1067.47 1857.13 1067.51 C 1857.5 1059.47 1857.74 1051.42 1857.86 1043.36 z" fill="#114530" transform="translate(0,0)"></path>
<path d="M 1082.36 327.366 C 1082.67 327.364 1082.99 327.361 1083.3 327.359 C 1236.7 332.334 1385.41 389.417 1505.64 484.348 C 1542.79 513.678 1573.05 544.057 1603.44 578.534 C 1718.8 711.84 1777.7 884.837 1767.64 1060.84 C 1758.74 1220.97 1693.55 1372.82 1583.59 1489.57 C 1571.29 1502.53 1563.29 1514.09 1549.4 1526.92 C 1405.1 1660.34 1211.53 1736.29 1012.75 1723.43 C 841.838 1713.47 680.314 1641.96 558.043 1522.12 C 550.737 1514.95 554.141 1520.39 547.415 1520.47 C 545.196 1518.19 545.83 1519.49 545.298 1516.49 C 545.696 1515.97 548.42 1512.94 547.705 1512.22 C 482.317 1446.45 429.064 1365.25 394.341 1279.39 C 327.504 1114.82 329.081 930.387 398.722 766.986 C 406.514 748.683 414.747 730.264 423.746 712.525 C 432.075 696.106 477.698 613.857 490.921 608.726 C 492.381 608.16 491.622 608.729 492.702 606.91 C 490.918 605.938 491.491 606.63 490.789 605.01 C 499.584 593.966 512.325 576.552 523.449 569.008 L 524.541 568.282 C 524.086 567.513 523.624 566.749 523.155 565.989 C 534.342 547.203 629.626 464.026 649.457 454.027 L 650.565 456.323 L 652.133 456.425 L 654.468 454.148 C 654.747 452.994 654.99 451.63 655.416 450.507 C 657.997 443.706 696.344 423.195 704.17 418.837 C 781.175 375.074 865.829 346.419 953.583 334.41 C 982.581 330.638 1011.77 328.498 1041.01 328 C 1053.98 327.713 1071.9 332.781 1082.36 327.366 z" fill="#114530" transform="translate(0,0)"></path>
<path d="M 1058.74 344.09 C 1063.63 344.003 1079.17 343.161 1082.77 344.722 C 1172.65 349.329 1239.98 361.486 1324 396.782 C 1327.78 397.177 1332.28 398.813 1335.09 401.276 C 1354.96 411.749 1375.17 419.384 1395.42 430.576 C 1435.02 452.87 1472.58 478.618 1507.65 507.519 C 1519.12 517.071 1528.56 526.759 1539.33 536.009 C 1542.79 540.76 1544.96 540.974 1548.15 544.542 C 1596.45 591.049 1637.39 644.636 1669.56 703.46 C 1679.57 721.705 1689.6 746.489 1698.53 761.868 C 1700.59 764.371 1702.3 768.869 1702.74 771.871 C 1705.45 783.246 1711.9 794.14 1715.38 805.208 C 1730.36 852.832 1743.33 901.653 1748.69 951.395 C 1749.42 958.169 1752.86 1006.02 1751.38 1010.45 C 1752.88 1017.49 1752.32 1040.88 1751.12 1048.03 C 1748.65 1128.82 1733.69 1192.74 1705.32 1267.71 C 1705.73 1272.8 1705.38 1280 1702.17 1284.2 C 1691.27 1290.31 1697.72 1290.35 1692.7 1296.15 C 1661.8 1362.61 1621.8 1424.44 1573.85 1479.87 C 1568.43 1486.09 1559.11 1493.28 1551.87 1501.27 C 1551.08 1507.08 1549.57 1507.51 1544.44 1511.45 L 1543.39 1512.25 C 1540.06 1516.32 1537.01 1520.3 1531.87 1522.17 L 1530.82 1522.94 C 1514.08 1535.49 1498.75 1550.78 1481.59 1563.33 C 1433.89 1598.2 1375.17 1637.61 1318.46 1655.51 C 1313.87 1657.52 1313.22 1658.17 1309.46 1661.56 L 1308.31 1660.82 C 1301.66 1662.94 1295.1 1665.51 1288.55 1667.96 C 1210.33 1697.31 1134.98 1705.59 1052.02 1708.09 C 1046.72 1708.64 1044.52 1708.43 1039.16 1708 C 971.036 1707.13 903.449 1695.8 838.758 1674.43 C 820.433 1668.26 805.331 1660.93 788.034 1654.63 C 783.118 1652.85 781.2 1652.26 776.674 1649.56 C 692.364 1615.82 634.097 1568.94 567.175 1510.23 C 564.534 1508.54 561.499 1504.14 559.45 1501.53 C 505.466 1444.62 460.409 1384.99 427.198 1313.58 C 422.323 1303.09 418.302 1292.04 412.713 1281.91 L 412.082 1280.79 C 410.858 1276.06 408.287 1271.23 406.172 1266.75 C 401.488 1256.79 395.702 1238.03 392.28 1227.22 C 370.75 1160.41 359.922 1090.61 360.198 1020.42 C 360.048 1015.88 360.244 989.27 361.919 986.286 C 363.365 974.896 363.136 963.067 364.896 950.85 C 370.998 908.484 381.41 863.097 394.877 822.328 C 399.119 809.657 403.673 797.091 408.534 784.644 C 411.761 776.593 415.86 768.173 418.597 760.071 L 418.923 759.079 C 419.736 755.118 423.722 748.043 426.107 744.722 C 454.957 676.725 519.778 586.513 573.986 536.582 C 577.593 532.739 578.664 531.356 583.147 528.707 C 633.62 479.819 696.439 439.608 759.33 408.52 C 767.455 404.504 781.068 399.822 790.431 395.658 C 794.819 392.73 799.192 393.753 804.785 389.414 C 878.168 358.745 979.62 343.44 1058.74 344.09 z" fill="#FDFBF4" transform="translate(0,0)"></path>
<path d="M 1531.46 1520.26 C 1523.62 1512.02 1522.58 1510.85 1516.84 1500.76 L 1514.54 1501.98 C 1510.92 1499.62 1498.78 1482.74 1494.02 1478.19 C 1483.25 1467.91 1470.55 1458.91 1460.18 1448.55 C 1442.06 1429.95 1426.47 1412.24 1409.03 1392.59 C 1396.7 1378.69 1377.72 1363.19 1368.55 1346.69 C 1367.39 1344.6 1368.03 1342.97 1368.93 1341.06 C 1372.59 1339.43 1375.33 1339.54 1378.32 1342.58 C 1412.77 1378.08 1445.98 1413.77 1481.99 1447.69 C 1501.86 1466.41 1520.72 1490.02 1539.24 1510.29 C 1542.58 1510.11 1548.87 1503.86 1551.87 1501.27 C 1551.08 1507.08 1549.57 1507.51 1544.44 1511.45 L 1543.39 1512.25 C 1540.06 1516.32 1537.01 1520.3 1531.87 1522.17 L 1531.46 1520.26 z" fill="#2F7A54" transform="translate(0,0)"></path>
<path d="M 530.726 1222.85 C 543.788 1217.27 630.693 1180.65 638.679 1182.82 C 641.236 1183.52 641.636 1184.81 642.797 1186.93 C 639.9 1197.89 593.093 1209.38 581.652 1214.87 C 563.508 1223.58 545.455 1233.13 526.835 1240.69 C 512.611 1248.13 491.813 1253.67 475.897 1258.42 C 473.933 1256.82 474.871 1257.43 473.091 1256.5 C 461.137 1263.05 464.599 1262.97 449.25 1268.27 C 441.937 1270.79 416.294 1278.09 412.082 1280.79 C 410.858 1276.06 408.287 1271.23 406.172 1266.75 C 415.896 1265.15 431.428 1260.05 441.026 1257.14 C 472.818 1247.53 500.607 1236.36 530.726 1222.85 z" fill="#2F7A54" transform="translate(0,0)"></path>
<path d="M 1554.48 1241.2 L 1553.34 1239.66 C 1547.84 1241.12 1533.95 1235.23 1530.93 1231.11 C 1524.46 1222.28 1463.54 1204.29 1468.25 1191.6 C 1469.88 1190.83 1471.72 1189.46 1473.43 1189.94 C 1496.42 1196.43 1518.65 1211.55 1540.35 1221.48 C 1548.87 1225.38 1564.18 1230.76 1569.16 1236.96 C 1574.87 1235.22 1586.21 1243.3 1592.04 1245.58 C 1597.18 1247.6 1601.87 1249.32 1607.14 1251.01 C 1610.03 1252.21 1613.63 1253.57 1616.4 1254.87 C 1642.82 1266.42 1669.68 1273.93 1696.34 1284.97 L 1705.32 1267.71 C 1705.73 1272.8 1705.38 1280 1702.17 1284.2 C 1691.27 1290.31 1697.72 1290.35 1692.7 1296.15 C 1690.65 1294.85 1691.66 1295.33 1689.35 1294.5 C 1681.18 1291.56 1673.27 1287.8 1665.05 1285.07 C 1644.92 1278.4 1563.11 1254.87 1554.48 1241.2 z" fill="#2F7A54" transform="translate(0,0)"></path>
<path d="M 1607.14 1251.01 C 1610.03 1252.21 1613.63 1253.57 1616.4 1254.87 C 1614.3 1256.04 1607.43 1259.04 1605.23 1258.62 C 1605.87 1256.07 1606.38 1253.52 1607.14 1251.01 z" fill="rgb(125,109,95)" transform="translate(0,0)"></path>
<path d="M 660.949 1393.56 C 671.814 1382.7 719.949 1333.61 731.501 1330.12 L 733.723 1330.55 C 734.728 1332.62 736.103 1334.14 735.173 1336.49 C 732.869 1342.32 683.202 1390.42 674.974 1398.33 C 664.245 1409.3 651.676 1421.66 642.497 1433.84 L 641.206 1433.87 L 639.693 1435.11 C 638.815 1438.05 639.476 1438.03 637.786 1439.1 C 634.115 1444.75 630.11 1448.85 625.577 1453.81 C 616.304 1463.61 606.785 1473.17 597.029 1482.49 C 589.732 1489.89 584.585 1494.54 576.585 1501.2 C 573.413 1504.05 569.895 1506.98 567.175 1510.23 C 564.534 1508.54 561.499 1504.14 559.45 1501.53 C 562.957 1499.13 565.841 1496.4 569.018 1493.58 C 574.233 1488.39 579.037 1484.27 584.632 1479.48 C 601.436 1463.61 609.529 1449.7 623.512 1433.28 C 629.193 1421.66 632.324 1418.58 641.875 1410.24 C 643.88 1407.19 657.426 1396.44 660.949 1393.56 z" fill="#2F7A54" transform="translate(0,0)"></path>
<path d="M 1242.88 1512.74 C 1235.88 1497.2 1213.9 1453.73 1219.18 1438.86 L 1220.68 1438.16 C 1230.44 1444.06 1241.16 1481.15 1247.04 1492.75 C 1251.81 1502.16 1259.42 1515.02 1262.9 1524.56 C 1268.01 1537.4 1273.23 1550.19 1278.57 1562.94 C 1280.85 1568.05 1283.21 1573.57 1284.52 1579.01 C 1288.87 1597.18 1299.94 1612.7 1307.18 1629.49 C 1310.01 1635.71 1315.91 1651.09 1318.46 1655.51 C 1313.87 1657.52 1313.22 1658.17 1309.46 1661.56 L 1308.31 1660.82 C 1307.8 1655.72 1296.6 1636.49 1293.53 1630.94 C 1279.3 1604.76 1268.87 1579.11 1257.58 1551.76 C 1255.86 1548.77 1254.26 1543.38 1253.1 1539.94 C 1248.82 1530.12 1246.19 1522.94 1242.88 1512.74 z" fill="#2F7A54" transform="translate(0,0)"></path>
<path d="M 1039.98 1680.81 C 1041.98 1639.14 1034.94 1593.66 1039.5 1551.72 C 1040.95 1538.49 1039.35 1481.39 1043.56 1471.97 C 1045.85 1470.16 1044.56 1470.65 1047.69 1470.97 C 1050.34 1472.78 1053.01 1474.98 1053.3 1478.54 C 1054.69 1495.85 1052.89 1513.41 1052.94 1530.77 C 1052.96 1538.2 1048.72 1544.96 1053.11 1550.97 C 1053.04 1566.82 1055.52 1575.41 1048.26 1589.49 C 1055.97 1613.67 1053.71 1656.07 1051.84 1681.39 C 1053.08 1687.16 1052.47 1691.64 1052.05 1697.46 L 1052.02 1708.09 C 1046.72 1708.64 1044.52 1708.43 1039.16 1708 L 1039.08 1696.67 C 1039.05 1690.82 1038.82 1686.62 1039.98 1680.81 z" fill="#2F7A54" transform="translate(0,0)"></path>
<path d="M 790.431 395.658 C 794.819 392.73 799.192 393.753 804.785 389.414 C 805.93 396.375 808.414 402.186 811.267 408.583 C 822.34 432.657 831.556 458.03 842.841 481.962 C 851.489 500.3 863.512 517.786 870.916 536.857 C 877.291 553.276 882.95 569.836 886.745 587.017 C 888.521 595.055 897.786 605.886 892.998 614.064 C 882.092 617.68 863.919 550.795 858.262 540.663 C 836.707 502.061 819.326 462.992 803.215 421.893 L 800.937 417.868 C 797.346 408.081 795.67 404.538 790.431 395.658 z" fill="#2F7A54" transform="translate(0,0)"></path>
<path d="M 800.937 417.868 C 803.997 416.038 806.462 413.89 809.761 414.337 C 810.171 419.173 805.771 419.434 803.215 421.893 L 800.937 417.868 z" fill="rgb(144,134,114)" transform="translate(0,0)"></path>
<path d="M 360.198 1020.42 C 360.048 1015.88 360.244 989.27 361.919 986.286 C 362.118 992.309 361.548 1000.73 363.199 1005.92 C 363.794 1006.47 364.39 1007.03 364.986 1007.58 C 441.765 1008.07 518 1000.9 594.775 1004.04 C 600.49 1004.27 602.685 1003.14 607.714 1006.71 C 609.557 1010.46 609.105 1008.5 608.861 1012.86 C 603.987 1019.03 551.262 1015.05 540.501 1015.25 C 506.486 1015.89 472.55 1018.43 438.511 1018.96 C 413.04 1019.36 385.096 1016.7 360.198 1020.42 z" fill="#2F7A54" transform="translate(0,0)"></path>
<path d="M 1324 396.782 C 1327.78 397.177 1332.28 398.813 1335.09 401.276 C 1327.37 419.242 1319.79 432.148 1311.51 449.468 C 1302.81 467.681 1294.79 495.442 1284.82 512.815 C 1282.54 518.385 1281.22 521.463 1278.29 526.787 C 1273.3 540.956 1244.48 601.678 1235.94 611.001 C 1234.07 613.049 1232.98 614.507 1230.18 614.642 C 1226 603.723 1259.64 539.602 1266.17 523.409 C 1283.14 481.327 1300.09 435.386 1324 396.782 z" fill="#2F7A54" transform="translate(0,0)"></path>
<path d="M 859.393 1466.24 C 861.231 1462.06 876.406 1419.6 884.581 1436.83 C 886.953 1441.83 868.148 1474.93 864.745 1481.22 C 863.375 1483.63 862.845 1483.89 860.504 1485.38 C 859.573 1487.14 859.689 1487.95 859.927 1489.83 C 860.937 1497.79 837.026 1538.67 833.289 1550.34 C 827.094 1564.99 822.266 1580.45 816.896 1595.4 C 815.381 1599.62 811.241 1612.88 809.374 1616.13 C 806.503 1621.76 803.537 1627.35 800.478 1632.88 L 798.13 1637.63 C 794.835 1636.13 790.163 1633 786.962 1631 C 790.721 1622.05 794.072 1614.21 798.388 1605.46 C 798.839 1600.55 806.436 1579.81 808.183 1573.6 C 811.375 1563.39 813.626 1558.26 818.715 1549 C 832.62 1521.07 844.96 1494.32 859.393 1466.24 z" fill="#2F7A54" transform="translate(0,0)"></path>
<path d="M 418.923 759.079 C 419.736 755.118 423.722 748.043 426.107 744.722 C 431.208 754.504 442.268 756.226 452.044 759.7 C 469.559 765.922 489.126 769.574 506.439 776.066 C 546.072 790.928 583.128 812.727 623.042 826.841 C 624.979 827.526 626.831 828.87 628.028 830.555 C 626.607 833.261 622.689 835.117 619.88 836.816 C 600.014 832.578 593.421 827.351 576.174 821.731 C 564.633 818.779 550.988 810.62 539.925 805.382 C 525.394 798.503 510.748 791.59 495.629 786.067 C 480.021 781.114 464.078 777.393 448.511 772.094 C 438.514 768.69 429.677 763.387 420.457 759.685 L 418.923 759.079 z" fill="#2F7A54" transform="translate(0,0)"></path>
<path d="M 495.629 786.067 C 497.489 785.693 501.628 785.004 503.203 785.723 C 518.433 792.673 567.744 809.392 576.174 821.731 C 564.633 818.779 550.988 810.62 539.925 805.382 C 525.394 798.503 510.748 791.59 495.629 786.067 z" fill="rgb(125,109,95)" transform="translate(0,0)"></path>
<path d="M 1751.38 1010.45 C 1752.88 1017.49 1752.32 1040.88 1751.12 1048.03 L 1750.9 1034.69 C 1735.63 1038.06 1716.73 1035.28 1700.86 1035.81 C 1646.65 1037.63 1592.49 1039.91 1538.45 1033.86 C 1531.37 1033.07 1506.25 1033.46 1501.38 1031.19 L 1501.79 1029.41 C 1505.27 1025.44 1506.44 1025.02 1511.08 1022.21 C 1539.83 1021.18 1564.23 1025.59 1591.67 1026.71 C 1627.7 1028.18 1666.25 1024.87 1702.29 1023.83 C 1718.75 1023.35 1734.45 1024.92 1751.37 1024.19 C 1751.1 1019.19 1751.21 1015.39 1751.38 1010.45 z" fill="#2F7A54" transform="translate(0,0)"></path>
<path d="M 1539.33 536.009 C 1542.79 540.76 1544.96 540.974 1548.15 544.542 C 1540.78 552.218 1519.05 578.986 1512.89 583.17 C 1502.43 595.598 1397.2 705.075 1393.91 706.404 C 1391.93 707.201 1389.16 707.269 1387.25 706.326 C 1385.87 705.645 1386.1 704.821 1385.74 703.455 C 1389.66 693.236 1495.34 581.94 1509.59 567.426 C 1517.97 559.753 1531.51 544.741 1539.33 536.009 z" fill="#2F7A54" transform="translate(0,0)"></path>
<path d="M 573.986 536.582 C 577.593 532.739 578.664 531.356 583.147 528.707 C 588.456 538 597.18 544.822 604.076 552.949 C 614.479 565.062 624.353 577.765 635.723 589.009 C 643.859 597.055 653.315 603.775 661.581 611.633 C 678.293 627.519 693.804 644.553 708.084 662.65 C 711.863 667.439 716.112 672.044 719.622 677.062 L 719.993 677.874 C 724.714 687.955 735.462 692.826 735.7 700.048 C 733.986 702.926 735.192 701.97 731.903 702.931 C 723.616 700.63 713.651 687.761 708.531 680.872 C 705.318 677.595 700.042 671.622 697.332 667.989 C 675.353 638.524 646.707 617.332 621.371 591.698 C 604.777 574.908 592.277 553.263 573.986 536.582 z" fill="#2F7A54" transform="translate(0,0)"></path>
<path d="M 1060.02 346.189 C 1068.94 347.147 1072.58 348.438 1073.45 358.003 C 1072.15 375.888 1073.39 396.562 1072.12 412.344 L 1072.02 422.286 C 1072.55 428.15 1073.25 433.622 1072.96 439.506 C 1072.89 445.831 1073.02 453.29 1072.22 459.452 C 1072.98 463.808 1073.07 464.716 1072.99 469.11 C 1072.67 477.387 1073.51 517.698 1071.3 521.952 C 1068.34 521.559 1066.69 521.7 1063.76 521.819 C 1058.19 515.232 1060.58 494.901 1060.85 485.333 C 1059.54 475.507 1060.01 454.701 1059.98 444.292 L 1059.96 436.471 L 1060.25 422.129 L 1060.1 413.132 C 1059.87 390.818 1059.84 368.503 1060.02 346.189 z" fill="#2F7A54" transform="translate(0,0)"></path>
<path d="M 1698.53 761.868 C 1700.59 764.371 1702.3 768.869 1702.74 771.871 L 1699.4 773.001 C 1692.73 777.029 1683.98 780.242 1676.58 783.39 C 1640.86 798.573 1604.47 811.677 1569.22 828.035 C 1565.67 829.684 1561.63 830.164 1557.81 829.346 C 1554.65 826.841 1555.71 828.424 1554.76 824.271 C 1563.11 814.015 1671.29 773.248 1692.84 764.401 C 1694.32 763.985 1697.02 762.581 1698.53 761.868 z" fill="#2F7A54" transform="translate(0,0)"></path>
<path d="M 1060.36 528.947 C 1064.35 529.783 1067.35 530.522 1071.26 531.671 L 1072.25 533.66 C 1072.19 547.537 1074.02 564.057 1071.11 577.547 C 1069.95 582.905 1072.57 584.752 1068.69 589.23 L 1066.88 588.825 C 1059.1 581.269 1061.58 542.986 1060.36 528.947 z" fill="#2F7A54" transform="translate(0,0)"></path>
<path d="M 776.674 1649.56 C 780.186 1643.56 783.599 1637.12 786.962 1631 C 790.163 1633 794.835 1636.13 798.13 1637.63 C 795.53 1644.05 788.89 1651.92 788.034 1654.63 C 783.118 1652.85 781.2 1652.26 776.674 1649.56 z" fill="url(#Gradient1)" transform="translate(0,0)"></path>
<path d="M 1063.76 521.819 C 1066.69 521.7 1068.34 521.559 1071.3 521.952 C 1073.51 525.017 1072.82 529.955 1072.25 533.66 L 1071.26 531.671 C 1067.35 530.522 1064.35 529.783 1060.36 528.947 C 1061.18 524.262 1060.78 524.444 1063.76 521.819 z" fill="rgb(125,109,95)" transform="translate(0,0)"></path>
<path d="M 1058.74 344.09 C 1063.63 344.003 1079.17 343.161 1082.77 344.722 C 1077.69 344.94 1078.66 344.195 1074.83 346.531 C 1073.12 350.266 1074 353.708 1073.45 358.003 C 1072.58 348.438 1068.94 347.147 1060.02 346.189 L 1058.74 344.09 z" fill="rgb(125,109,95)" transform="translate(0,0)"></path>
<path d="M 1042.41 833.322 C 1057.91 832.42 1074.48 831.913 1089.66 835.799 C 1102.58 839.106 1111.28 861.666 1107.14 872.474 C 1105.03 874.545 1101.59 877.361 1101.94 880.601 C 1103.76 897.272 1106.63 913.76 1108.42 930.47 C 1110.37 949.566 1112.09 968.685 1113.58 987.823 C 1115.55 1012.53 1115.13 1025.2 1128.97 1046.52 C 1133.73 1053.85 1140.12 1074.4 1140.91 1083.08 C 1143.17 1107.95 1141.37 1133.93 1141.96 1159.33 C 1153.89 1160.03 1166.37 1159.72 1178.34 1159.45 C 1216.16 1158.61 1245.82 1185.19 1246.34 1223.55 C 1246.74 1241.8 1239.68 1259.42 1226.79 1272.34 C 1201.62 1297.58 1176.01 1293.2 1143.13 1293.11 C 1142.92 1310.06 1143.09 1327.07 1143.11 1344.02 C 1143.13 1364.82 1145.43 1377.72 1125.92 1389.99 L 1126.09 1389.77 C 1113.79 1396.59 1084.63 1399.36 1070.25 1398.85 C 1048.35 1399.9 1010.6 1398.31 989.451 1392.27 C 983.705 1390.63 976.881 1386 971.849 1382.53 C 961.532 1361.21 970.337 1317.56 966.815 1291.81 C 957.395 1292.03 947.764 1292.68 938.402 1292.81 C 920.474 1293.02 903.214 1286.02 890.508 1273.37 C 877.955 1261.25 870.838 1244.57 870.779 1227.13 C 870.888 1209.98 877.583 1191.48 890.119 1179.63 C 914.573 1156.53 937.686 1159.81 968.502 1160.36 C 973.828 1132.03 965.323 1101.15 971.97 1073.49 C 976.559 1054.39 990.145 1040.78 996.052 1021.07 C 1000.13 1007.47 995.044 1007.52 996.497 997.466 C 998.208 985.621 997.529 971.288 999.56 960.067 C 1004.14 935.022 1009.05 907.898 1011.31 882.662 C 1011.9 876.173 996.928 867.487 1008.32 852.576 C 1018.1 839.774 1027.61 836.495 1042.41 833.322 z" fill="#114530" transform="translate(0,0)"></path>
<path d="M 1134.38 1166.51 C 1136.2 1166.44 1138.01 1166.38 1139.83 1166.33 C 1167.69 1165.57 1202.16 1161.22 1223.29 1182.73 C 1234.37 1194 1239.73 1208.17 1239.93 1223.79 C 1240.2 1240.67 1233.53 1256.92 1221.49 1268.74 C 1202.96 1287.14 1185.24 1286.98 1160.72 1286.45 C 1149.06 1286.19 1136.74 1286.37 1125 1286.34 L 985.25 1286.06 C 955.052 1286.03 917.736 1291.76 896.023 1269.58 C 884.988 1258.32 877.108 1244.73 876.881 1228.75 C 876.675 1212.39 883.003 1196.63 894.463 1184.96 C 914.265 1164.84 934.708 1166.72 960.689 1166.85 C 975.749 1166.93 991.026 1166.96 1006.1 1167.01 C 1048.86 1167.11 1091.62 1166.94 1134.38 1166.51 z" fill="#FDFBF4" transform="translate(0,0)"></path>
<path d="M 931.734 1204.48 C 940.384 1204.53 951.584 1204.02 958.493 1209.82 C 965.772 1215.93 962.444 1224.53 956.881 1230.16 C 958.851 1238.02 971.125 1234.52 963.22 1252.66 C 952.953 1262.02 944.458 1260.53 930.774 1260.88 C 932.501 1243.77 929.774 1216.97 931.734 1204.48 z" fill="#114530" transform="translate(0,0)"></path>
<path d="M 939.03 1234.04 C 950.579 1234.44 963.92 1236.17 954.99 1251.27 C 935.781 1259.42 938.522 1249.61 939.03 1234.04 z" fill="#FDFBF4" transform="translate(0,0)"></path>
<path d="M 938.695 1210.92 C 949.531 1210.7 957.67 1212.41 953.507 1225.64 C 948.736 1228.04 943.849 1230 939.71 1226.11 C 937.838 1221.47 938.543 1216.08 938.695 1210.92 z" fill="#FDFBF4" transform="translate(0,0)"></path>
<path d="M 1025.56 1204.87 C 1036.49 1204.59 1049.26 1203.65 1056.58 1214.45 C 1061.54 1221.78 1054.19 1231.14 1047.7 1235.09 C 1050.38 1239.04 1062.03 1256.56 1060.76 1260.11 C 1055.38 1260.38 1054.71 1259.89 1052.07 1255.76 C 1049.03 1249.54 1045.92 1241.58 1040.55 1237.44 C 1037.35 1236.63 1037.59 1236.63 1034.45 1237.7 C 1029.59 1243.5 1033.4 1249.78 1032.37 1259.17 L 1031.01 1260.17 C 1027.32 1259.96 1028.82 1260.64 1026.23 1258.35 C 1025.09 1255.2 1025.57 1211.31 1025.56 1204.87 z" fill="#114530" transform="translate(0,0)"></path>
<path d="M 1032.62 1211.1 C 1045.53 1211.08 1054.72 1213.49 1047.88 1228.36 C 1042.57 1230.63 1037.42 1232.09 1033.31 1227.69 C 1031.59 1222.85 1032.4 1216.45 1032.62 1211.1 z" fill="#FDFBF4" transform="translate(0,0)"></path>
<path d="M 1179.4 1203.4 C 1181.67 1203.67 1181.56 1203.73 1183.77 1204.42 C 1185.87 1209.17 1186.06 1256.35 1183.41 1260.19 L 1180.89 1259.97 C 1173.31 1255.16 1156.73 1225.22 1151.01 1215.86 C 1150.83 1225.23 1151.86 1254.61 1150.08 1262.04 C 1146.54 1261.08 1146.71 1261.74 1144.62 1259.41 C 1143.9 1252.05 1144.04 1212.69 1145.07 1205.83 C 1153.23 1200.28 1174.06 1241.15 1179.04 1248.54 C 1179.1 1238.34 1177.95 1212.12 1179.4 1203.4 z" fill="#114530" transform="translate(0,0)"></path>
<path d="M 979.36 1205.01 C 985.815 1204.81 1006.91 1203.29 1010.23 1208.57 C 1004 1211.99 994.725 1211.12 987.556 1211 L 987.689 1227.21 C 992.712 1227.24 1001.97 1226.91 1006.74 1227.93 C 1007.84 1228.16 1008.03 1229.69 1008.61 1231.18 C 1005.65 1236.41 993.869 1231.48 987.851 1235.59 L 987.468 1238.75 L 987.682 1252.79 C 994.396 1252.85 1005.65 1250.97 1010.32 1254.92 C 1011.21 1257.93 1011.34 1256.54 1010.19 1259.25 C 1004.93 1260.86 986.237 1259.94 979.664 1259.77 C 981.213 1244.71 980.603 1220.05 979.36 1205.01 z" fill="#114530" transform="translate(0,0)"></path>
<path d="M 1081.7 1203.83 C 1083.67 1207.4 1082.91 1247.4 1082.89 1253.58 C 1088 1253.4 1100.76 1251.99 1104.18 1254.99 C 1104.34 1258.19 1104.61 1256.64 1102.95 1259.71 L 1100.25 1260.08 L 1075.26 1260.17 C 1075.57 1250.53 1074.15 1209.68 1076.56 1205.29 L 1081.7 1203.83 z" fill="#114530" transform="translate(0,0)"></path>
<path d="M 1117.37 1204.71 C 1120.74 1204.68 1121.15 1204.45 1124.35 1205.71 C 1125.01 1209.42 1124.72 1253.51 1124.87 1260.65 C 1121.54 1260.52 1121.32 1260.64 1118.02 1259.59 C 1116.27 1254.86 1117.29 1212.52 1117.37 1204.71 z" fill="#114530" transform="translate(0,0)"></path>
<path d="M 1025.82 1043.8 C 1027.92 1044.89 1029.83 1047.1 1031.17 1048.99 C 1023.71 1055.05 1023.4 1060.95 1019.38 1068.8 C 1004.44 1098.03 1007.26 1126.65 1008.42 1158.19 C 1003.05 1158.3 992.763 1160.21 990.326 1155.46 C 989.986 1155.09 988.24 1153.22 988.13 1152.45 C 985.77 1135.86 988.721 1113.2 988.47 1095.91 C 988.41 1091.8 992.097 1079.72 993.088 1076.97 C 1003.29 1048.67 1004.22 1054.26 1025.82 1043.8 z" fill="#FDFBF4" transform="translate(0,0)"></path>
<path d="M 1027.49 902.45 C 1030.59 902.882 1031.77 902.802 1034.4 904.555 C 1037.53 915.77 1035.35 986.922 1033.78 1002.26 C 1032.68 1013.04 1034.12 1013.24 1026.34 1019.62 C 1023.13 1018.86 1017.25 1016.85 1016.7 1013.22 C 1012.35 984.196 1017.75 929.154 1027.49 902.45 z" fill="#FDFBF4" transform="translate(0,0)"></path>
<path d="M 1058.68 842.505 C 1073.81 842.096 1083.51 844.624 1096.63 851.522 L 1097 852.937 C 1098.02 856.718 1099.4 859.744 1098.25 863.383 C 1092.71 867.316 1081.46 859.928 1073.88 859.339 C 1068.48 858.919 1064.45 858.813 1059.04 858.795 C 1052.63 858.833 1048.75 859.01 1042.48 859.837 C 1035.27 860.787 1020.15 865.819 1013.62 864.575 C 1013.37 861.876 1015.78 857.372 1016.99 854.611 C 1030.15 845.46 1043.11 843.284 1058.68 842.505 z" fill="#FDFBF4" transform="translate(0,0)"></path>
<path d="M 1003.92 1323.35 C 1001.63 1327.77 1004.67 1353.61 1001.12 1359 C 998.022 1360.06 993.133 1358.66 992.212 1355.55 C 988.628 1343.47 986.332 1303.13 989.016 1292.92 C 992.649 1292.07 995.664 1292.85 999.425 1292.35 C 1002.22 1294.12 1002.65 1297.03 1003.8 1300.34 L 1004.94 1305.43 C 1007.03 1306.26 1006.69 1306.14 1008.84 1306.58 L 1009.56 1308.07 C 1006.6 1315.62 1017.38 1319.39 1003.92 1323.35 z" fill="#FDFBF4" transform="translate(0,0)"></path>
<path d="M 1003.8 1300.34 L 1004.94 1305.43 C 1007.03 1306.26 1006.69 1306.14 1008.84 1306.58 L 1009.56 1308.07 C 1006.6 1315.62 1017.38 1319.39 1003.92 1323.35 C 1002.87 1315.01 1002.54 1308.79 1003.8 1300.34 z" fill="#114530" transform="translate(0,0)"></path>
<path d="M 1089.35 1016.7 L 1090.93 1016.31 C 1092.25 1018.86 1090.56 1024.99 1089.44 1027.52 C 1084.56 1020.92 1085.81 1025.29 1083.05 1021.47 L 1084.01 1020.54 L 1087.58 1021.01 L 1087.68 1017.47 L 1089.35 1016.7 z" fill="#114530" transform="translate(0,0)"></path>
<path d="M 1024.61 1068.73 C 1024.68 1069.16 1023.87 1080.06 1023.72 1080.67 L 1021.54 1081.42 C 1020.14 1077.45 1022.76 1072.22 1024.61 1068.73 z" fill="rgb(191,148,85)" transform="translate(0,0)"></path>
<path d="M 1098.48 990.744 L 1098.95 993.099 L 1096.72 994.665 L 1097.38 996.544 L 1096.34 997.417 L 1094.85 997.059 C 1094.15 993.88 1094.16 995.477 1095.17 992.111 L 1098.48 990.744 z" fill="#114530" transform="translate(0,0)"></path>
<path d="M 1015.17 1139.64 C 1015.74 1139.46 1015.28 1139.55 1016.99 1139.56 L 1017.84 1143.6 L 1016.43 1143.73 L 1015.17 1139.64 z" fill="#114530" transform="translate(0,0)"></path>
<path d="M 919.587 693.294 C 941.906 690.846 943.32 703.37 936.167 720.032 C 937.966 723.008 942.217 722.387 944.876 724.154 C 964.625 737.279 950.241 752.581 935.108 758.387 C 925.852 761.126 918.885 762.344 909.372 763.911 C 907.503 746.368 900.53 715.195 896.136 698.057 C 904.316 696.114 911.298 694.724 919.587 693.294 z" fill="#114530" transform="translate(0,0)"></path>
<path d="M 928.625 728.419 C 942.501 726.745 950.901 744.559 929.287 752.108 L 918.516 753.763 C 916.902 745.998 915.544 738.182 914.444 730.328 C 918.963 729.314 923.987 728.924 928.625 728.419 z" fill="#FDFBF4" transform="translate(0,0)"></path>
<path d="M 914.589 701.216 C 933.366 699.743 938.442 715.955 924.592 720.591 C 920.746 721.094 916.29 722.003 912.415 722.687 C 910.689 716.845 908.197 710.498 908.677 704.624 C 910.514 701.477 909.805 702.499 914.589 701.216 z" fill="#FDFBF4" transform="translate(0,0)"></path>
<path d="M 1108.84 680.902 C 1123.61 680.805 1150.28 683.306 1148.83 704.15 C 1148.32 711.536 1140.3 718.291 1134.77 722.489 C 1139.87 732.971 1144.48 744.225 1149.09 754.972 C 1140.39 753.893 1137.68 755.837 1134.96 747.5 C 1132.09 739.522 1128.62 731.082 1125.53 723.131 L 1113.1 721.789 C 1111.36 731.01 1112.91 742.199 1108.04 747.892 C 1105.4 749.244 1102.58 749.854 1100.33 747.545 C 1100.13 733.521 1106.03 695.193 1108.84 680.902 z" fill="#114530" transform="translate(0,0)"></path>
<path d="M 1117.66 689.135 C 1131.9 690.544 1148.09 697.427 1132.65 712.626 C 1125.99 715.604 1121.55 714.992 1114.32 714.888 C 1115.17 706.475 1116.53 697.558 1117.66 689.135 z" fill="#FDFBF4" transform="translate(0,0)"></path>
<path d="M 686.6 819.649 C 690.41 820.895 730.017 860.854 735.648 866.587 L 729.03 873.627 C 716.908 861.953 704.652 850.419 692.264 839.027 C 695.007 850.046 698.898 860.838 701.662 871.852 C 702.939 876.941 704.279 881.207 699.624 884.429 C 691.478 885.111 668.514 875.176 659.503 871.737 L 667.843 880.274 C 677.373 889.512 687.584 898.817 697.356 907.846 C 694.849 910.557 693.008 913.017 689.544 913.532 C 673.949 898.025 658.281 882.73 642.32 867.602 C 642.085 866.694 641.849 865.785 641.614 864.877 L 642.983 863.003 C 649.397 860.376 651.576 861.572 657.931 863.568 C 669.751 867.281 681.802 870.632 693.711 874.055 C 690.819 857.253 685.012 844.057 682.454 827.762 C 681.819 823.715 684.153 822.164 686.6 819.649 z" fill="#114530" transform="translate(0,0)"></path>
<path d="M 1563.27 900.93 C 1571.88 910.46 1588.8 927.217 1575.15 941.193 C 1568.8 947.692 1559.95 947.206 1551.44 946.841 C 1548.15 958.608 1545.11 972.736 1542.12 984.809 C 1539.57 981.993 1536.93 978.706 1534.46 975.775 C 1536.27 968.692 1538.33 961.441 1540.25 954.364 C 1541.74 949.126 1545.27 941.211 1539.14 938.415 C 1531.45 939.739 1521.56 951.055 1516.01 956.847 C 1513.43 954.159 1511.09 951.045 1508.76 948.103 C 1526.95 936.851 1544.63 913.836 1563.27 900.93 z" fill="#114530" transform="translate(0,0)"></path>
<path d="M 1562.67 913.783 C 1577.25 921.857 1571.86 937.672 1554.62 939.352 C 1550.98 937.855 1547.68 936.282 1546.28 932.423 C 1546.86 925.337 1556.86 918.732 1562.67 913.783 z" fill="#FDFBF4" transform="translate(0,0)"></path>
<path d="M 1280.51 718.301 C 1312.49 723.207 1329.42 758.492 1292.31 761.612 C 1293.86 773.371 1295.65 785.349 1296.38 797.169 L 1286.05 792.022 C 1285.51 788.712 1285.18 785.111 1284.79 781.76 C 1283.95 773.456 1284.33 768.013 1279.82 761.19 C 1272.21 757.912 1266.45 779.062 1264.38 784.526 L 1255.6 780.067 C 1263.36 759.262 1271.66 738.666 1280.51 718.301 z" fill="#114530" transform="translate(0,0)"></path>
<path d="M 1287.61 728.286 C 1299.25 733.696 1312.17 745.537 1294.59 754.12 C 1287.07 754.16 1284.32 753.554 1276.86 752.137 C 1280.28 743.84 1283.78 736.367 1287.61 728.286 z" fill="#FDFBF4" transform="translate(0,0)"></path>
<path d="M 796.062 739.934 C 799.653 742.724 829.932 795.189 829.246 798.552 C 820.072 804.019 775.227 783.15 761.279 780.226 C 766.794 788.053 786.785 816.843 787.997 824.686 C 786.456 827.507 783.876 828.288 780.89 829.801 C 780.425 829.331 770.249 811.68 769.945 810.832 C 767.187 803.146 745.685 775.618 747.758 768.911 C 748.138 768.719 748.502 768.489 748.899 768.337 C 758.231 764.753 804.457 784.444 815.444 788.692 L 788.794 744.747 L 796.062 739.934 z" fill="#114530" transform="translate(0,0)"></path>
<path d="M 1357.9 752.6 C 1361.01 752.824 1362.55 753.93 1364.74 755.819 C 1365.22 757.421 1358.06 819.315 1357.29 827.156 C 1353.97 825.685 1349.93 823.517 1346.61 821.852 C 1348.04 815.37 1348.83 809.429 1349.75 802.866 L 1335.33 795.592 L 1328.3 792.043 C 1324.12 796.938 1319.96 801.306 1315.53 805.969 L 1305.72 801.932 C 1320.83 786.286 1341.46 768.856 1357.9 752.6 z" fill="#114530" transform="translate(0,0)"></path>
<path d="M 1353.89 767.806 C 1354.86 772.512 1352.19 788.758 1351.39 794.454 L 1340.46 788.994 C 1338.29 787.833 1338.32 787.751 1336.35 786.218 C 1336.71 781.444 1349.5 771.797 1353.89 767.806 z" fill="#FDFBF4" transform="translate(0,0)"></path>
<path d="M 1460.28 814.637 C 1464.39 815.607 1465.64 817.933 1468.38 821.199 C 1461.95 828.852 1454.56 836.838 1447.87 844.356 C 1460.7 840.894 1474.44 836.938 1487.34 834.159 C 1490.1 836.599 1492.9 839.006 1495.72 841.38 C 1482.94 844.814 1470.07 847.912 1457.13 850.674 C 1456.86 863.471 1454.8 881.088 1453.91 894.553 L 1454.24 895.46 C 1451.32 894.578 1446.89 890.308 1444.34 888.138 C 1444.8 874.391 1447.58 861.097 1448.61 847.233 C 1441.59 853.872 1436.72 860.216 1430.6 867.603 C 1428.3 870.373 1428.02 871.205 1424.66 871.295 C 1421.5 869.637 1421.14 869.739 1419.06 866.751 C 1420.56 862.384 1455.08 820.842 1460.28 814.637 z" fill="#114530" transform="translate(0,0)"></path>
<path d="M 1513.79 856.683 C 1521.06 861.665 1542.24 878.528 1541.95 887.078 C 1534.69 888.064 1520.97 874.175 1515.36 869.179 C 1511.42 874.004 1507.51 878.992 1503.62 883.87 C 1508.75 890.221 1514.46 894.716 1518.94 901.291 C 1518.16 904.446 1518.87 903.033 1516.47 905.54 C 1510.18 904.852 1502.19 894.482 1497.33 889.257 C 1494.88 891.785 1492.32 894.724 1489.92 897.348 L 1481.01 906.733 C 1488.33 914.671 1494.4 920.678 1502.73 927.469 C 1500.63 929.729 1497.97 932.177 1495.71 934.354 C 1486.32 924.797 1476.71 915.444 1466.91 906.302 C 1482.47 892.585 1498.61 872.039 1513.79 856.683 z" fill="#114530" transform="translate(0,0)"></path>
<path d="M 1005.7 680.453 L 1009.44 680.404 L 1010.93 682.322 C 1011.45 686.168 1011.89 684.527 1010.03 687.514 C 1003.67 689.424 988.699 690.091 981.159 690.716 C 981.809 697.373 982.514 704.024 983.275 710.669 C 990.468 709.833 1007.75 706.915 1013.13 711.916 C 1008.73 717.478 991.242 717.358 984.147 717.757 L 986.158 741.467 L 1000.55 740.594 C 1005.5 740.063 1011.68 738.876 1016.26 740.172 C 1018.84 742.722 1017.95 741.18 1018.47 745.222 L 1017.22 746.796 C 1010.18 748.837 984.898 750.421 976.109 751.181 C 975.475 729.801 972.489 704.999 970.609 683.369 C 982.317 682.507 994.016 681.535 1005.7 680.453 z" fill="#114530" transform="translate(0,0)"></path>
<path d="M 1040.6 678.712 C 1047.98 678.974 1073.42 678.363 1078.64 680.235 C 1079.21 683.863 1079.36 682.093 1077.83 685.694 C 1072.2 689.893 1057.58 687.974 1049.54 687.854 L 1049.62 706.646 C 1055.75 706.87 1070.97 706.354 1075.89 707.629 C 1077.42 710.554 1076.97 708.931 1076.42 712.837 C 1070.36 718.794 1062.45 711.929 1051.05 714.485 C 1048.47 716.798 1049.44 715.304 1049.11 719.75 L 1048.59 738.911 C 1057.24 738.968 1071.15 736.856 1077.72 739.902 C 1079.97 743.065 1079.36 741.303 1079.22 745.49 C 1075.37 747.948 1045.72 747.004 1038.51 747.027 C 1039.94 724.377 1040.16 701.421 1040.6 678.712 z" fill="#114530" transform="translate(0,0)"></path>
<path d="M 1405.24 785.138 C 1415.35 784.122 1431.88 785.287 1437.81 798.686 C 1438.72 800.748 1437.5 802.486 1436.27 804.143 C 1429.99 805.311 1426.14 796.224 1420.22 794.37 C 1398.98 787.721 1380.16 816.142 1388.45 834.96 C 1395.64 842.946 1406.83 841.219 1409.02 849.002 L 1408.1 850.421 C 1404.75 852.028 1395.35 850.709 1392.3 849.084 C 1361.42 832.632 1378.55 795.191 1405.24 785.138 z" fill="#114530" transform="translate(0,0)"></path>
<path d="M 1212 696.855 C 1219.63 699.137 1253.83 707.736 1256.4 711.639 C 1255.76 714.391 1255.79 714.215 1254.16 716.545 C 1248.95 716.748 1241.17 714.515 1235.79 713.249 C 1232.74 726.718 1229.23 738.939 1225.42 752.22 C 1224.16 757.71 1222.15 764.387 1220.64 769.925 L 1211.28 766.27 C 1215.58 748.617 1221.98 728.302 1226.98 710.513 C 1221.29 708.204 1216.63 707.969 1211.87 704.409 C 1209.99 700.914 1210.6 702.023 1212 696.855 z" fill="#114530" transform="translate(0,0)"></path>
<path d="M 835.604 720.028 C 837.249 722.296 843.874 738.301 845.434 741.799 C 851.419 755.222 857.516 768.595 863.615 781.971 L 854.424 786.281 C 846.224 772.97 834.385 740.63 826.239 724.098 L 835.604 720.028 z" fill="#114530" transform="translate(0,0)"></path>
<path d="M 718.019 790.894 C 721.023 794.241 724.192 798.278 726.94 801.857 C 737.886 816.113 750.457 829.227 761.347 843.481 C 759.171 845.367 755.881 847.7 753.523 849.484 C 738.609 832.475 724.833 814.589 709.652 797.447 C 712.175 795.26 715.325 792.959 718.019 790.894 z" fill="#114530" transform="translate(0,0)"></path>
<path d="M 1071.62 108.069 C 1072.53 104.558 1073.55 99.177 1076.34 96.967 C 1078.86 98.9992 1078.28 99.6294 1079.33 103.513 C 1079.59 107.646 1079.95 112.033 1080.06 116.149 C 1080.34 123.861 1082.52 145.232 1078.5 150.085 C 1081.09 153.299 1080.39 156.982 1080.32 161.628 L 1078.87 171.204 C 1078.49 182.069 1079.65 193.87 1078.83 203.849 L 1079.08 219.301 L 1091.52 221.163 C 1090.79 221.669 1090.06 222.175 1089.33 222.681 C 1077.72 221.929 1068.99 220.543 1057.42 221.279 C 1059.85 220.617 1059.95 220.709 1062.02 219.357 C 1065.94 209.975 1063.3 196.452 1064.9 185.742 C 1064.84 180.452 1065.18 177.889 1065.92 172.615 C 1065.79 164.975 1066.21 159.59 1066.88 151.934 C 1066.92 146.924 1067.71 142.866 1068.47 137.939 C 1070.31 129.581 1068.32 123.785 1070.5 113.533 L 1071.62 108.069 z" fill="#2F7A54" transform="translate(0,0)"></path>
<path d="M 1611.62 1615.02 C 1613.23 1611.38 1616.05 1609.09 1619.53 1607.31 C 1644.54 1634.88 1679.44 1665.96 1695.22 1700.29 C 1675.77 1689.62 1642.94 1654.7 1628.13 1636.48 C 1622.92 1630.07 1616.1 1620.19 1611.62 1615.02 z" fill="#2F7A54" transform="translate(0,0)"></path>
<path d="M 237.021 1001.12 C 236.732 1004.96 236.338 1008.79 235.841 1012.62 C 227.563 1013.83 215.221 1013.01 206.303 1012.87 C 179.86 1012.27 153.426 1011.29 127.011 1009.94 C 118.456 1009.5 102.396 1009.23 96.5985 1002.81 C 103.599 997.91 206.116 1001.41 221.691 1002.13 C 227.185 1002.39 230.922 1002.81 237.021 1001.12 z" fill="#2F7A54" transform="translate(0,0)"></path>
<path d="M 1873.61 1052.91 C 1874.18 1046.49 1873.87 1040.93 1872.12 1034.7 L 1873.89 1034.09 C 1875.36 1041.09 1874.54 1040.04 1879.57 1043.39 L 1881 1042.92 C 1893.11 1039.04 1932.53 1044.09 1948.19 1043.01 C 1966.95 1044.93 1991.6 1044.86 2010.98 1045.45 C 1996.95 1049.76 1986.74 1052.75 1971.92 1053.2 C 1967.21 1053.34 1957.77 1052.79 1953.92 1053.22 C 1928.47 1055.27 1898.45 1050.39 1873.61 1052.91 z" fill="#2F7A54" transform="translate(0,0)"></path>
<path d="M 1621.27 439.866 C 1649.68 411.49 1671.19 385.265 1705.37 362.667 C 1679.11 403.592 1657.87 416.431 1628.59 450.61 C 1623.72 447.011 1612.53 436.966 1609.07 432.308 C 1613.94 435.013 1616.67 436.664 1621.27 439.866 z" fill="#2F7A54" transform="translate(0,0)"></path>
<path d="M 427.353 353.594 C 437.281 360.238 443.615 365.439 452.221 373.633 C 463.394 384.111 474.281 394.888 484.872 405.954 C 490.755 412.154 500.967 424.171 507.453 428.76 C 503.987 430.899 500.623 433.199 497.371 435.651 C 484.446 424.3 455.747 397.366 446.632 383.103 C 437.858 374.446 433.07 364.333 427.353 353.594 z" fill="#2F7A54" transform="translate(0,0)"></path>
<path d="M 479.594 1599.82 C 482.82 1602.2 486.407 1605.89 488.534 1607.38 L 488.51 1608.97 C 466.695 1630.86 430.903 1663.47 404.841 1680.96 C 414.867 1665.61 449.876 1624.91 465.502 1614.69 C 470.186 1609.12 474.413 1604.95 479.594 1599.82 z" fill="#2F7A54" transform="translate(0,0)"></path>
<path d="M 1034.83 1832.79 C 1034.97 1837.98 1034.34 1842.96 1037.04 1846.93 C 1040.7 1848.73 1042.91 1848.18 1047.16 1847.98 L 1048.88 1846.43 C 1049.07 1859.92 1045.28 1886.94 1046.04 1894.77 C 1044.66 1897.1 1044.56 1896.16 1045.02 1898.24 C 1046.98 1907.12 1046.38 1910.24 1043.92 1918.41 C 1043.21 1910.56 1046.26 1900.53 1039.87 1895.05 C 1035.84 1894.94 1036.96 1895.09 1032.89 1897.65 C 1032.88 1886.47 1032.55 1875.39 1033.99 1864.31 C 1033.69 1859.2 1033.98 1855.69 1034.33 1850.65 C 1034.11 1844.19 1033.69 1839.17 1034.83 1832.79 z" fill="#2F7A54" transform="translate(0,0)"></path>
<path d="M 1033.99 1864.31 C 1039.69 1874.1 1027.17 1881.01 1037.43 1890.52 C 1039.03 1892 1043.47 1893.26 1046.04 1894.77 C 1044.66 1897.1 1044.56 1896.16 1045.02 1898.24 C 1046.98 1907.12 1046.38 1910.24 1043.92 1918.41 C 1043.21 1910.56 1046.26 1900.53 1039.87 1895.05 C 1035.84 1894.94 1036.96 1895.09 1032.89 1897.65 C 1032.88 1886.47 1032.55 1875.39 1033.99 1864.31 z" fill="rgb(144,134,114)" transform="translate(0,0)"></path>
<path d="M 1032.89 1897.65 C 1036.96 1895.09 1035.84 1894.94 1039.87 1895.05 C 1046.26 1900.53 1043.21 1910.56 1043.92 1918.41 L 1042.99 1926.64 C 1041.43 1937.74 1039.56 1947.28 1037.33 1958.22 C 1034.62 1948.52 1033.27 1941.86 1032.93 1931.64 C 1032.55 1918.91 1032.39 1910.37 1032.89 1897.65 z" fill="#2F7A54" transform="translate(0,0)"></path>
<metadata><recraft-signature>{"signed_by": "recraft", "signature_b64": "lxvMpcs91yLHZnpyC1nQ4qvfKZBs2VCA+fD+jek6cXrRfWi9g+ZbToxAuZMiABQD7r/H+Cfs+fPK1NiOPKsJDw==", "signing_algo": "Ed25519", "generation_timestamp": 1776972919, "identifier": "cfa16a3d-582e-4a87-9596-12ac4074df4b"}</recraft-signature></metadata></svg>